<?xml version="1.0" encoding="utf-8" standalone="no"?>
<!DOCTYPE svg PUBLIC "-//W3C//DTD SVG 1.1//EN"
  "http://www.w3.org/Graphics/SVG/1.1/DTD/svg11.dtd">
<svg height="648pt" version="1.1" viewBox="0 0 1440 648" width="1440pt" xmlns="http://www.w3.org/2000/svg" xmlns:xlink="http://www.w3.org/1999/xlink">
 <metadata>
  <rdf:RDF xmlns:cc="http://creativecommons.org/ns#" xmlns:dc="http://purl.org/dc/elements/1.1/" xmlns:rdf="http://www.w3.org/1999/02/22-rdf-syntax-ns#">
   <cc:Work>
    <dc:type rdf:resource="http://purl.org/dc/dcmitype/StillImage"/>
    <dc:date>2022-03-16T16:01:03.782135</dc:date>
    <dc:format>image/svg+xml</dc:format>
    <dc:creator>
     <cc:Agent>
      <dc:title>Matplotlib v3.4.2, https://matplotlib.org/</dc:title>
     </cc:Agent>
    </dc:creator>
   </cc:Work>
  </rdf:RDF>
 </metadata>
 <defs>
  <style type="text/css">*{stroke-linecap:butt;stroke-linejoin:round;}</style>
 </defs>
 <g id="figure_1">
  <g id="patch_1">
   <path d="M 0 648 
L 1440 648 
L 1440 0 
L 0 0 
z
" style="fill:#ffffff;"/>
  </g>
  <g id="axes_1">
   <g id="patch_2">
    <path d="M 180 567 
L 1296 567 
L 1296 77.76 
L 180 77.76 
z
" style="fill:#ffffff;"/>
   </g>
   <g id="matplotlib.axis_1">
    <g id="xtick_1">
     <g id="text_1">
      <!-- Extrapolation directe/Base DPE non corrigée -->
      <g style="fill:#262626;" transform="translate(182.821641 592.697422)scale(0.165 -0.165)">
       <defs>
        <path d="M 628 4666 
L 3578 4666 
L 3578 4134 
L 1259 4134 
L 1259 2753 
L 3481 2753 
L 3481 2222 
L 1259 2222 
L 1259 531 
L 3634 531 
L 3634 0 
L 628 0 
L 628 4666 
z
" id="DejaVuSans-45" transform="scale(0.015625)"/>
        <path d="M 3513 3500 
L 2247 1797 
L 3578 0 
L 2900 0 
L 1881 1375 
L 863 0 
L 184 0 
L 1544 1831 
L 300 3500 
L 978 3500 
L 1906 2253 
L 2834 3500 
L 3513 3500 
z
" id="DejaVuSans-78" transform="scale(0.015625)"/>
        <path d="M 1172 4494 
L 1172 3500 
L 2356 3500 
L 2356 3053 
L 1172 3053 
L 1172 1153 
Q 1172 725 1289 603 
Q 1406 481 1766 481 
L 2356 481 
L 2356 0 
L 1766 0 
Q 1100 0 847 248 
Q 594 497 594 1153 
L 594 3053 
L 172 3053 
L 172 3500 
L 594 3500 
L 594 4494 
L 1172 4494 
z
" id="DejaVuSans-74" transform="scale(0.015625)"/>
        <path d="M 2631 2963 
Q 2534 3019 2420 3045 
Q 2306 3072 2169 3072 
Q 1681 3072 1420 2755 
Q 1159 2438 1159 1844 
L 1159 0 
L 581 0 
L 581 3500 
L 1159 3500 
L 1159 2956 
Q 1341 3275 1631 3429 
Q 1922 3584 2338 3584 
Q 2397 3584 2469 3576 
Q 2541 3569 2628 3553 
L 2631 2963 
z
" id="DejaVuSans-72" transform="scale(0.015625)"/>
        <path d="M 2194 1759 
Q 1497 1759 1228 1600 
Q 959 1441 959 1056 
Q 959 750 1161 570 
Q 1363 391 1709 391 
Q 2188 391 2477 730 
Q 2766 1069 2766 1631 
L 2766 1759 
L 2194 1759 
z
M 3341 1997 
L 3341 0 
L 2766 0 
L 2766 531 
Q 2569 213 2275 61 
Q 1981 -91 1556 -91 
Q 1019 -91 701 211 
Q 384 513 384 1019 
Q 384 1609 779 1909 
Q 1175 2209 1959 2209 
L 2766 2209 
L 2766 2266 
Q 2766 2663 2505 2880 
Q 2244 3097 1772 3097 
Q 1472 3097 1187 3025 
Q 903 2953 641 2809 
L 641 3341 
Q 956 3463 1253 3523 
Q 1550 3584 1831 3584 
Q 2591 3584 2966 3190 
Q 3341 2797 3341 1997 
z
" id="DejaVuSans-61" transform="scale(0.015625)"/>
        <path d="M 1159 525 
L 1159 -1331 
L 581 -1331 
L 581 3500 
L 1159 3500 
L 1159 2969 
Q 1341 3281 1617 3432 
Q 1894 3584 2278 3584 
Q 2916 3584 3314 3078 
Q 3713 2572 3713 1747 
Q 3713 922 3314 415 
Q 2916 -91 2278 -91 
Q 1894 -91 1617 61 
Q 1341 213 1159 525 
z
M 3116 1747 
Q 3116 2381 2855 2742 
Q 2594 3103 2138 3103 
Q 1681 3103 1420 2742 
Q 1159 2381 1159 1747 
Q 1159 1113 1420 752 
Q 1681 391 2138 391 
Q 2594 391 2855 752 
Q 3116 1113 3116 1747 
z
" id="DejaVuSans-70" transform="scale(0.015625)"/>
        <path d="M 1959 3097 
Q 1497 3097 1228 2736 
Q 959 2375 959 1747 
Q 959 1119 1226 758 
Q 1494 397 1959 397 
Q 2419 397 2687 759 
Q 2956 1122 2956 1747 
Q 2956 2369 2687 2733 
Q 2419 3097 1959 3097 
z
M 1959 3584 
Q 2709 3584 3137 3096 
Q 3566 2609 3566 1747 
Q 3566 888 3137 398 
Q 2709 -91 1959 -91 
Q 1206 -91 779 398 
Q 353 888 353 1747 
Q 353 2609 779 3096 
Q 1206 3584 1959 3584 
z
" id="DejaVuSans-6f" transform="scale(0.015625)"/>
        <path d="M 603 4863 
L 1178 4863 
L 1178 0 
L 603 0 
L 603 4863 
z
" id="DejaVuSans-6c" transform="scale(0.015625)"/>
        <path d="M 603 3500 
L 1178 3500 
L 1178 0 
L 603 0 
L 603 3500 
z
M 603 4863 
L 1178 4863 
L 1178 4134 
L 603 4134 
L 603 4863 
z
" id="DejaVuSans-69" transform="scale(0.015625)"/>
        <path d="M 3513 2113 
L 3513 0 
L 2938 0 
L 2938 2094 
Q 2938 2591 2744 2837 
Q 2550 3084 2163 3084 
Q 1697 3084 1428 2787 
Q 1159 2491 1159 1978 
L 1159 0 
L 581 0 
L 581 3500 
L 1159 3500 
L 1159 2956 
Q 1366 3272 1645 3428 
Q 1925 3584 2291 3584 
Q 2894 3584 3203 3211 
Q 3513 2838 3513 2113 
z
" id="DejaVuSans-6e" transform="scale(0.015625)"/>
        <path id="DejaVuSans-20" transform="scale(0.015625)"/>
        <path d="M 2906 2969 
L 2906 4863 
L 3481 4863 
L 3481 0 
L 2906 0 
L 2906 525 
Q 2725 213 2448 61 
Q 2172 -91 1784 -91 
Q 1150 -91 751 415 
Q 353 922 353 1747 
Q 353 2572 751 3078 
Q 1150 3584 1784 3584 
Q 2172 3584 2448 3432 
Q 2725 3281 2906 2969 
z
M 947 1747 
Q 947 1113 1208 752 
Q 1469 391 1925 391 
Q 2381 391 2643 752 
Q 2906 1113 2906 1747 
Q 2906 2381 2643 2742 
Q 2381 3103 1925 3103 
Q 1469 3103 1208 2742 
Q 947 2381 947 1747 
z
" id="DejaVuSans-64" transform="scale(0.015625)"/>
        <path d="M 3597 1894 
L 3597 1613 
L 953 1613 
Q 991 1019 1311 708 
Q 1631 397 2203 397 
Q 2534 397 2845 478 
Q 3156 559 3463 722 
L 3463 178 
Q 3153 47 2828 -22 
Q 2503 -91 2169 -91 
Q 1331 -91 842 396 
Q 353 884 353 1716 
Q 353 2575 817 3079 
Q 1281 3584 2069 3584 
Q 2775 3584 3186 3129 
Q 3597 2675 3597 1894 
z
M 3022 2063 
Q 3016 2534 2758 2815 
Q 2500 3097 2075 3097 
Q 1594 3097 1305 2825 
Q 1016 2553 972 2059 
L 3022 2063 
z
" id="DejaVuSans-65" transform="scale(0.015625)"/>
        <path d="M 3122 3366 
L 3122 2828 
Q 2878 2963 2633 3030 
Q 2388 3097 2138 3097 
Q 1578 3097 1268 2742 
Q 959 2388 959 1747 
Q 959 1106 1268 751 
Q 1578 397 2138 397 
Q 2388 397 2633 464 
Q 2878 531 3122 666 
L 3122 134 
Q 2881 22 2623 -34 
Q 2366 -91 2075 -91 
Q 1284 -91 818 406 
Q 353 903 353 1747 
Q 353 2603 823 3093 
Q 1294 3584 2113 3584 
Q 2378 3584 2631 3529 
Q 2884 3475 3122 3366 
z
" id="DejaVuSans-63" transform="scale(0.015625)"/>
        <path d="M 1625 4666 
L 2156 4666 
L 531 -594 
L 0 -594 
L 1625 4666 
z
" id="DejaVuSans-2f" transform="scale(0.015625)"/>
        <path d="M 1259 2228 
L 1259 519 
L 2272 519 
Q 2781 519 3026 730 
Q 3272 941 3272 1375 
Q 3272 1813 3026 2020 
Q 2781 2228 2272 2228 
L 1259 2228 
z
M 1259 4147 
L 1259 2741 
L 2194 2741 
Q 2656 2741 2882 2914 
Q 3109 3088 3109 3444 
Q 3109 3797 2882 3972 
Q 2656 4147 2194 4147 
L 1259 4147 
z
M 628 4666 
L 2241 4666 
Q 2963 4666 3353 4366 
Q 3744 4066 3744 3513 
Q 3744 3084 3544 2831 
Q 3344 2578 2956 2516 
Q 3422 2416 3680 2098 
Q 3938 1781 3938 1306 
Q 3938 681 3513 340 
Q 3088 0 2303 0 
L 628 0 
L 628 4666 
z
" id="DejaVuSans-42" transform="scale(0.015625)"/>
        <path d="M 2834 3397 
L 2834 2853 
Q 2591 2978 2328 3040 
Q 2066 3103 1784 3103 
Q 1356 3103 1142 2972 
Q 928 2841 928 2578 
Q 928 2378 1081 2264 
Q 1234 2150 1697 2047 
L 1894 2003 
Q 2506 1872 2764 1633 
Q 3022 1394 3022 966 
Q 3022 478 2636 193 
Q 2250 -91 1575 -91 
Q 1294 -91 989 -36 
Q 684 19 347 128 
L 347 722 
Q 666 556 975 473 
Q 1284 391 1588 391 
Q 1994 391 2212 530 
Q 2431 669 2431 922 
Q 2431 1156 2273 1281 
Q 2116 1406 1581 1522 
L 1381 1569 
Q 847 1681 609 1914 
Q 372 2147 372 2553 
Q 372 3047 722 3315 
Q 1072 3584 1716 3584 
Q 2034 3584 2315 3537 
Q 2597 3491 2834 3397 
z
" id="DejaVuSans-73" transform="scale(0.015625)"/>
        <path d="M 1259 4147 
L 1259 519 
L 2022 519 
Q 2988 519 3436 956 
Q 3884 1394 3884 2338 
Q 3884 3275 3436 3711 
Q 2988 4147 2022 4147 
L 1259 4147 
z
M 628 4666 
L 1925 4666 
Q 3281 4666 3915 4102 
Q 4550 3538 4550 2338 
Q 4550 1131 3912 565 
Q 3275 0 1925 0 
L 628 0 
L 628 4666 
z
" id="DejaVuSans-44" transform="scale(0.015625)"/>
        <path d="M 1259 4147 
L 1259 2394 
L 2053 2394 
Q 2494 2394 2734 2622 
Q 2975 2850 2975 3272 
Q 2975 3691 2734 3919 
Q 2494 4147 2053 4147 
L 1259 4147 
z
M 628 4666 
L 2053 4666 
Q 2838 4666 3239 4311 
Q 3641 3956 3641 3272 
Q 3641 2581 3239 2228 
Q 2838 1875 2053 1875 
L 1259 1875 
L 1259 0 
L 628 0 
L 628 4666 
z
" id="DejaVuSans-50" transform="scale(0.015625)"/>
        <path d="M 2906 1791 
Q 2906 2416 2648 2759 
Q 2391 3103 1925 3103 
Q 1463 3103 1205 2759 
Q 947 2416 947 1791 
Q 947 1169 1205 825 
Q 1463 481 1925 481 
Q 2391 481 2648 825 
Q 2906 1169 2906 1791 
z
M 3481 434 
Q 3481 -459 3084 -895 
Q 2688 -1331 1869 -1331 
Q 1566 -1331 1297 -1286 
Q 1028 -1241 775 -1147 
L 775 -588 
Q 1028 -725 1275 -790 
Q 1522 -856 1778 -856 
Q 2344 -856 2625 -561 
Q 2906 -266 2906 331 
L 2906 616 
Q 2728 306 2450 153 
Q 2172 0 1784 0 
Q 1141 0 747 490 
Q 353 981 353 1791 
Q 353 2603 747 3093 
Q 1141 3584 1784 3584 
Q 2172 3584 2450 3431 
Q 2728 3278 2906 2969 
L 2906 3500 
L 3481 3500 
L 3481 434 
z
" id="DejaVuSans-67" transform="scale(0.015625)"/>
        <path d="M 3597 1894 
L 3597 1613 
L 953 1613 
Q 991 1019 1311 708 
Q 1631 397 2203 397 
Q 2534 397 2845 478 
Q 3156 559 3463 722 
L 3463 178 
Q 3153 47 2828 -22 
Q 2503 -91 2169 -91 
Q 1331 -91 842 396 
Q 353 884 353 1716 
Q 353 2575 817 3079 
Q 1281 3584 2069 3584 
Q 2775 3584 3186 3129 
Q 3597 2675 3597 1894 
z
M 3022 2063 
Q 3016 2534 2758 2815 
Q 2500 3097 2075 3097 
Q 1594 3097 1305 2825 
Q 1016 2553 972 2059 
L 3022 2063 
z
M 2469 5119 
L 3091 5119 
L 2072 3944 
L 1594 3944 
L 2469 5119 
z
" id="DejaVuSans-e9" transform="scale(0.015625)"/>
       </defs>
       <use xlink:href="#DejaVuSans-45"/>
       <use x="63.183594" xlink:href="#DejaVuSans-78"/>
       <use x="122.363281" xlink:href="#DejaVuSans-74"/>
       <use x="161.572266" xlink:href="#DejaVuSans-72"/>
       <use x="202.685547" xlink:href="#DejaVuSans-61"/>
       <use x="263.964844" xlink:href="#DejaVuSans-70"/>
       <use x="327.441406" xlink:href="#DejaVuSans-6f"/>
       <use x="388.623047" xlink:href="#DejaVuSans-6c"/>
       <use x="416.40625" xlink:href="#DejaVuSans-61"/>
       <use x="477.685547" xlink:href="#DejaVuSans-74"/>
       <use x="516.894531" xlink:href="#DejaVuSans-69"/>
       <use x="544.677734" xlink:href="#DejaVuSans-6f"/>
       <use x="605.859375" xlink:href="#DejaVuSans-6e"/>
       <use x="669.238281" xlink:href="#DejaVuSans-20"/>
       <use x="701.025391" xlink:href="#DejaVuSans-64"/>
       <use x="764.501953" xlink:href="#DejaVuSans-69"/>
       <use x="792.285156" xlink:href="#DejaVuSans-72"/>
       <use x="831.148438" xlink:href="#DejaVuSans-65"/>
       <use x="892.671875" xlink:href="#DejaVuSans-63"/>
       <use x="947.652344" xlink:href="#DejaVuSans-74"/>
       <use x="986.861328" xlink:href="#DejaVuSans-65"/>
       <use x="1048.384766" xlink:href="#DejaVuSans-2f"/>
       <use x="1082.076172" xlink:href="#DejaVuSans-42"/>
       <use x="1150.679688" xlink:href="#DejaVuSans-61"/>
       <use x="1211.958984" xlink:href="#DejaVuSans-73"/>
       <use x="1264.058594" xlink:href="#DejaVuSans-65"/>
       <use x="1325.582031" xlink:href="#DejaVuSans-20"/>
       <use x="1357.369141" xlink:href="#DejaVuSans-44"/>
       <use x="1434.371094" xlink:href="#DejaVuSans-50"/>
       <use x="1494.673828" xlink:href="#DejaVuSans-45"/>
       <use x="1557.857422" xlink:href="#DejaVuSans-20"/>
       <use x="1589.644531" xlink:href="#DejaVuSans-6e"/>
       <use x="1653.023438" xlink:href="#DejaVuSans-6f"/>
       <use x="1714.205078" xlink:href="#DejaVuSans-6e"/>
       <use x="1777.583984" xlink:href="#DejaVuSans-20"/>
       <use x="1809.371094" xlink:href="#DejaVuSans-63"/>
       <use x="1864.351562" xlink:href="#DejaVuSans-6f"/>
       <use x="1925.533203" xlink:href="#DejaVuSans-72"/>
       <use x="1964.896484" xlink:href="#DejaVuSans-72"/>
       <use x="2006.009766" xlink:href="#DejaVuSans-69"/>
       <use x="2033.792969" xlink:href="#DejaVuSans-67"/>
       <use x="2097.269531" xlink:href="#DejaVuSans-e9"/>
       <use x="2158.792969" xlink:href="#DejaVuSans-65"/>
      </g>
     </g>
    </g>
    <g id="xtick_2">
     <g id="text_2">
      <!-- Appariement/Base DPE non corrigée -->
      <g style="fill:#262626;" transform="translate(587.806172 592.697422)scale(0.165 -0.165)">
       <defs>
        <path d="M 2188 4044 
L 1331 1722 
L 3047 1722 
L 2188 4044 
z
M 1831 4666 
L 2547 4666 
L 4325 0 
L 3669 0 
L 3244 1197 
L 1141 1197 
L 716 0 
L 50 0 
L 1831 4666 
z
" id="DejaVuSans-41" transform="scale(0.015625)"/>
        <path d="M 3328 2828 
Q 3544 3216 3844 3400 
Q 4144 3584 4550 3584 
Q 5097 3584 5394 3201 
Q 5691 2819 5691 2113 
L 5691 0 
L 5113 0 
L 5113 2094 
Q 5113 2597 4934 2840 
Q 4756 3084 4391 3084 
Q 3944 3084 3684 2787 
Q 3425 2491 3425 1978 
L 3425 0 
L 2847 0 
L 2847 2094 
Q 2847 2600 2669 2842 
Q 2491 3084 2119 3084 
Q 1678 3084 1418 2786 
Q 1159 2488 1159 1978 
L 1159 0 
L 581 0 
L 581 3500 
L 1159 3500 
L 1159 2956 
Q 1356 3278 1631 3431 
Q 1906 3584 2284 3584 
Q 2666 3584 2933 3390 
Q 3200 3197 3328 2828 
z
" id="DejaVuSans-6d" transform="scale(0.015625)"/>
       </defs>
       <use xlink:href="#DejaVuSans-41"/>
       <use x="68.408203" xlink:href="#DejaVuSans-70"/>
       <use x="131.884766" xlink:href="#DejaVuSans-70"/>
       <use x="195.361328" xlink:href="#DejaVuSans-61"/>
       <use x="256.640625" xlink:href="#DejaVuSans-72"/>
       <use x="297.753906" xlink:href="#DejaVuSans-69"/>
       <use x="325.537109" xlink:href="#DejaVuSans-65"/>
       <use x="387.060547" xlink:href="#DejaVuSans-6d"/>
       <use x="484.472656" xlink:href="#DejaVuSans-65"/>
       <use x="545.996094" xlink:href="#DejaVuSans-6e"/>
       <use x="609.375" xlink:href="#DejaVuSans-74"/>
       <use x="648.583984" xlink:href="#DejaVuSans-2f"/>
       <use x="682.275391" xlink:href="#DejaVuSans-42"/>
       <use x="750.878906" xlink:href="#DejaVuSans-61"/>
       <use x="812.158203" xlink:href="#DejaVuSans-73"/>
       <use x="864.257812" xlink:href="#DejaVuSans-65"/>
       <use x="925.78125" xlink:href="#DejaVuSans-20"/>
       <use x="957.568359" xlink:href="#DejaVuSans-44"/>
       <use x="1034.570312" xlink:href="#DejaVuSans-50"/>
       <use x="1094.873047" xlink:href="#DejaVuSans-45"/>
       <use x="1158.056641" xlink:href="#DejaVuSans-20"/>
       <use x="1189.84375" xlink:href="#DejaVuSans-6e"/>
       <use x="1253.222656" xlink:href="#DejaVuSans-6f"/>
       <use x="1314.404297" xlink:href="#DejaVuSans-6e"/>
       <use x="1377.783203" xlink:href="#DejaVuSans-20"/>
       <use x="1409.570312" xlink:href="#DejaVuSans-63"/>
       <use x="1464.550781" xlink:href="#DejaVuSans-6f"/>
       <use x="1525.732422" xlink:href="#DejaVuSans-72"/>
       <use x="1565.095703" xlink:href="#DejaVuSans-72"/>
       <use x="1606.208984" xlink:href="#DejaVuSans-69"/>
       <use x="1633.992188" xlink:href="#DejaVuSans-67"/>
       <use x="1697.46875" xlink:href="#DejaVuSans-e9"/>
       <use x="1758.992188" xlink:href="#DejaVuSans-65"/>
      </g>
     </g>
    </g>
    <g id="xtick_3">
     <g id="text_3">
      <!-- Appariement/Base DPE corrigée -->
      <g style="fill:#262626;" transform="translate(977.932969 592.697422)scale(0.165 -0.165)">
       <use xlink:href="#DejaVuSans-41"/>
       <use x="68.408203" xlink:href="#DejaVuSans-70"/>
       <use x="131.884766" xlink:href="#DejaVuSans-70"/>
       <use x="195.361328" xlink:href="#DejaVuSans-61"/>
       <use x="256.640625" xlink:href="#DejaVuSans-72"/>
       <use x="297.753906" xlink:href="#DejaVuSans-69"/>
       <use x="325.537109" xlink:href="#DejaVuSans-65"/>
       <use x="387.060547" xlink:href="#DejaVuSans-6d"/>
       <use x="484.472656" xlink:href="#DejaVuSans-65"/>
       <use x="545.996094" xlink:href="#DejaVuSans-6e"/>
       <use x="609.375" xlink:href="#DejaVuSans-74"/>
       <use x="648.583984" xlink:href="#DejaVuSans-2f"/>
       <use x="682.275391" xlink:href="#DejaVuSans-42"/>
       <use x="750.878906" xlink:href="#DejaVuSans-61"/>
       <use x="812.158203" xlink:href="#DejaVuSans-73"/>
       <use x="864.257812" xlink:href="#DejaVuSans-65"/>
       <use x="925.78125" xlink:href="#DejaVuSans-20"/>
       <use x="957.568359" xlink:href="#DejaVuSans-44"/>
       <use x="1034.570312" xlink:href="#DejaVuSans-50"/>
       <use x="1094.873047" xlink:href="#DejaVuSans-45"/>
       <use x="1158.056641" xlink:href="#DejaVuSans-20"/>
       <use x="1189.84375" xlink:href="#DejaVuSans-63"/>
       <use x="1244.824219" xlink:href="#DejaVuSans-6f"/>
       <use x="1306.005859" xlink:href="#DejaVuSans-72"/>
       <use x="1345.369141" xlink:href="#DejaVuSans-72"/>
       <use x="1386.482422" xlink:href="#DejaVuSans-69"/>
       <use x="1414.265625" xlink:href="#DejaVuSans-67"/>
       <use x="1477.742188" xlink:href="#DejaVuSans-e9"/>
       <use x="1539.265625" xlink:href="#DejaVuSans-65"/>
      </g>
     </g>
    </g>
    <g id="text_4">
     <!-- scenario -->
     <g style="fill:#262626;" transform="translate(699.899063 613.806094)scale(0.18 -0.18)">
      <use xlink:href="#DejaVuSans-73"/>
      <use x="52.099609" xlink:href="#DejaVuSans-63"/>
      <use x="107.080078" xlink:href="#DejaVuSans-65"/>
      <use x="168.603516" xlink:href="#DejaVuSans-6e"/>
      <use x="231.982422" xlink:href="#DejaVuSans-61"/>
      <use x="293.261719" xlink:href="#DejaVuSans-72"/>
      <use x="334.375" xlink:href="#DejaVuSans-69"/>
      <use x="362.158203" xlink:href="#DejaVuSans-6f"/>
     </g>
    </g>
   </g>
   <g id="matplotlib.axis_2">
    <g id="ytick_1">
     <g id="line2d_1">
      <path clip-path="url(#p27195870c5)" d="M 180 567 
L 1296 567 
" style="fill:none;stroke:#cccccc;stroke-linecap:round;stroke-width:1.5;"/>
     </g>
     <g id="text_5">
      <!-- 0 -->
      <g style="fill:#262626;" transform="translate(157.001875 573.268711)scale(0.165 -0.165)">
       <defs>
        <path d="M 2034 4250 
Q 1547 4250 1301 3770 
Q 1056 3291 1056 2328 
Q 1056 1369 1301 889 
Q 1547 409 2034 409 
Q 2525 409 2770 889 
Q 3016 1369 3016 2328 
Q 3016 3291 2770 3770 
Q 2525 4250 2034 4250 
z
M 2034 4750 
Q 2819 4750 3233 4129 
Q 3647 3509 3647 2328 
Q 3647 1150 3233 529 
Q 2819 -91 2034 -91 
Q 1250 -91 836 529 
Q 422 1150 422 2328 
Q 422 3509 836 4129 
Q 1250 4750 2034 4750 
z
" id="DejaVuSans-30" transform="scale(0.015625)"/>
       </defs>
       <use xlink:href="#DejaVuSans-30"/>
      </g>
     </g>
    </g>
    <g id="ytick_2">
     <g id="line2d_2">
      <path clip-path="url(#p27195870c5)" d="M 180 464.122436 
L 1296 464.122436 
" style="fill:none;stroke:#cccccc;stroke-linecap:round;stroke-width:1.5;"/>
     </g>
     <g id="text_6">
      <!-- 2 -->
      <g style="fill:#262626;" transform="translate(157.001875 470.391147)scale(0.165 -0.165)">
       <defs>
        <path d="M 1228 531 
L 3431 531 
L 3431 0 
L 469 0 
L 469 531 
Q 828 903 1448 1529 
Q 2069 2156 2228 2338 
Q 2531 2678 2651 2914 
Q 2772 3150 2772 3378 
Q 2772 3750 2511 3984 
Q 2250 4219 1831 4219 
Q 1534 4219 1204 4116 
Q 875 4013 500 3803 
L 500 4441 
Q 881 4594 1212 4672 
Q 1544 4750 1819 4750 
Q 2544 4750 2975 4387 
Q 3406 4025 3406 3419 
Q 3406 3131 3298 2873 
Q 3191 2616 2906 2266 
Q 2828 2175 2409 1742 
Q 1991 1309 1228 531 
z
" id="DejaVuSans-32" transform="scale(0.015625)"/>
       </defs>
       <use xlink:href="#DejaVuSans-32"/>
      </g>
     </g>
    </g>
    <g id="ytick_3">
     <g id="line2d_3">
      <path clip-path="url(#p27195870c5)" d="M 180 361.244871 
L 1296 361.244871 
" style="fill:none;stroke:#cccccc;stroke-linecap:round;stroke-width:1.5;"/>
     </g>
     <g id="text_7">
      <!-- 4 -->
      <g style="fill:#262626;" transform="translate(157.001875 367.513582)scale(0.165 -0.165)">
       <defs>
        <path d="M 2419 4116 
L 825 1625 
L 2419 1625 
L 2419 4116 
z
M 2253 4666 
L 3047 4666 
L 3047 1625 
L 3713 1625 
L 3713 1100 
L 3047 1100 
L 3047 0 
L 2419 0 
L 2419 1100 
L 313 1100 
L 313 1709 
L 2253 4666 
z
" id="DejaVuSans-34" transform="scale(0.015625)"/>
       </defs>
       <use xlink:href="#DejaVuSans-34"/>
      </g>
     </g>
    </g>
    <g id="ytick_4">
     <g id="line2d_4">
      <path clip-path="url(#p27195870c5)" d="M 180 258.367307 
L 1296 258.367307 
" style="fill:none;stroke:#cccccc;stroke-linecap:round;stroke-width:1.5;"/>
     </g>
     <g id="text_8">
      <!-- 6 -->
      <g style="fill:#262626;" transform="translate(157.001875 264.636018)scale(0.165 -0.165)">
       <defs>
        <path d="M 2113 2584 
Q 1688 2584 1439 2293 
Q 1191 2003 1191 1497 
Q 1191 994 1439 701 
Q 1688 409 2113 409 
Q 2538 409 2786 701 
Q 3034 994 3034 1497 
Q 3034 2003 2786 2293 
Q 2538 2584 2113 2584 
z
M 3366 4563 
L 3366 3988 
Q 3128 4100 2886 4159 
Q 2644 4219 2406 4219 
Q 1781 4219 1451 3797 
Q 1122 3375 1075 2522 
Q 1259 2794 1537 2939 
Q 1816 3084 2150 3084 
Q 2853 3084 3261 2657 
Q 3669 2231 3669 1497 
Q 3669 778 3244 343 
Q 2819 -91 2113 -91 
Q 1303 -91 875 529 
Q 447 1150 447 2328 
Q 447 3434 972 4092 
Q 1497 4750 2381 4750 
Q 2619 4750 2861 4703 
Q 3103 4656 3366 4563 
z
" id="DejaVuSans-36" transform="scale(0.015625)"/>
       </defs>
       <use xlink:href="#DejaVuSans-36"/>
      </g>
     </g>
    </g>
    <g id="ytick_5">
     <g id="line2d_5">
      <path clip-path="url(#p27195870c5)" d="M 180 155.489743 
L 1296 155.489743 
" style="fill:none;stroke:#cccccc;stroke-linecap:round;stroke-width:1.5;"/>
     </g>
     <g id="text_9">
      <!-- 8 -->
      <g style="fill:#262626;" transform="translate(157.001875 161.758454)scale(0.165 -0.165)">
       <defs>
        <path d="M 2034 2216 
Q 1584 2216 1326 1975 
Q 1069 1734 1069 1313 
Q 1069 891 1326 650 
Q 1584 409 2034 409 
Q 2484 409 2743 651 
Q 3003 894 3003 1313 
Q 3003 1734 2745 1975 
Q 2488 2216 2034 2216 
z
M 1403 2484 
Q 997 2584 770 2862 
Q 544 3141 544 3541 
Q 544 4100 942 4425 
Q 1341 4750 2034 4750 
Q 2731 4750 3128 4425 
Q 3525 4100 3525 3541 
Q 3525 3141 3298 2862 
Q 3072 2584 2669 2484 
Q 3125 2378 3379 2068 
Q 3634 1759 3634 1313 
Q 3634 634 3220 271 
Q 2806 -91 2034 -91 
Q 1263 -91 848 271 
Q 434 634 434 1313 
Q 434 1759 690 2068 
Q 947 2378 1403 2484 
z
M 1172 3481 
Q 1172 3119 1398 2916 
Q 1625 2713 2034 2713 
Q 2441 2713 2670 2916 
Q 2900 3119 2900 3481 
Q 2900 3844 2670 4047 
Q 2441 4250 2034 4250 
Q 1625 4250 1398 4047 
Q 1172 3844 1172 3481 
z
" id="DejaVuSans-38" transform="scale(0.015625)"/>
       </defs>
       <use xlink:href="#DejaVuSans-38"/>
      </g>
     </g>
    </g>
    <g id="text_10">
     <!-- Nombre de logements -->
     <g style="fill:#262626;" transform="translate(149.258438 422.590781)rotate(-90)scale(0.18 -0.18)">
      <defs>
       <path d="M 628 4666 
L 1478 4666 
L 3547 763 
L 3547 4666 
L 4159 4666 
L 4159 0 
L 3309 0 
L 1241 3903 
L 1241 0 
L 628 0 
L 628 4666 
z
" id="DejaVuSans-4e" transform="scale(0.015625)"/>
       <path d="M 3116 1747 
Q 3116 2381 2855 2742 
Q 2594 3103 2138 3103 
Q 1681 3103 1420 2742 
Q 1159 2381 1159 1747 
Q 1159 1113 1420 752 
Q 1681 391 2138 391 
Q 2594 391 2855 752 
Q 3116 1113 3116 1747 
z
M 1159 2969 
Q 1341 3281 1617 3432 
Q 1894 3584 2278 3584 
Q 2916 3584 3314 3078 
Q 3713 2572 3713 1747 
Q 3713 922 3314 415 
Q 2916 -91 2278 -91 
Q 1894 -91 1617 61 
Q 1341 213 1159 525 
L 1159 0 
L 581 0 
L 581 4863 
L 1159 4863 
L 1159 2969 
z
" id="DejaVuSans-62" transform="scale(0.015625)"/>
      </defs>
      <use xlink:href="#DejaVuSans-4e"/>
      <use x="74.804688" xlink:href="#DejaVuSans-6f"/>
      <use x="135.986328" xlink:href="#DejaVuSans-6d"/>
      <use x="233.398438" xlink:href="#DejaVuSans-62"/>
      <use x="296.875" xlink:href="#DejaVuSans-72"/>
      <use x="335.738281" xlink:href="#DejaVuSans-65"/>
      <use x="397.261719" xlink:href="#DejaVuSans-20"/>
      <use x="429.048828" xlink:href="#DejaVuSans-64"/>
      <use x="492.525391" xlink:href="#DejaVuSans-65"/>
      <use x="554.048828" xlink:href="#DejaVuSans-20"/>
      <use x="585.835938" xlink:href="#DejaVuSans-6c"/>
      <use x="613.619141" xlink:href="#DejaVuSans-6f"/>
      <use x="674.800781" xlink:href="#DejaVuSans-67"/>
      <use x="738.277344" xlink:href="#DejaVuSans-65"/>
      <use x="799.800781" xlink:href="#DejaVuSans-6d"/>
      <use x="897.212891" xlink:href="#DejaVuSans-65"/>
      <use x="958.736328" xlink:href="#DejaVuSans-6e"/>
      <use x="1022.115234" xlink:href="#DejaVuSans-74"/>
      <use x="1061.324219" xlink:href="#DejaVuSans-73"/>
     </g>
    </g>
    <g id="text_11">
     <!-- 1e6 -->
     <g style="fill:#262626;" transform="translate(180 74.76)scale(0.165 -0.165)">
      <defs>
       <path d="M 794 531 
L 1825 531 
L 1825 4091 
L 703 3866 
L 703 4441 
L 1819 4666 
L 2450 4666 
L 2450 531 
L 3481 531 
L 3481 0 
L 794 0 
L 794 531 
z
" id="DejaVuSans-31" transform="scale(0.015625)"/>
      </defs>
      <use xlink:href="#DejaVuSans-31"/>
      <use x="63.623047" xlink:href="#DejaVuSans-65"/>
      <use x="125.146484" xlink:href="#DejaVuSans-36"/>
     </g>
    </g>
   </g>
   <g id="patch_3">
    <path clip-path="url(#p27195870c5)" d="M 217.2 567 
L 259.714286 567 
L 259.714286 464.374329 
L 217.2 464.374329 
z
" style="fill:#138613;"/>
   </g>
   <g id="patch_4">
    <path clip-path="url(#p27195870c5)" d="M 589.2 567 
L 631.714286 567 
L 631.714286 561.068505 
L 589.2 561.068505 
z
" style="fill:#138613;"/>
   </g>
   <g id="patch_5">
    <path clip-path="url(#p27195870c5)" d="M 961.2 567 
L 1003.714286 567 
L 1003.714286 544.134351 
L 961.2 544.134351 
z
" style="fill:#138613;"/>
   </g>
   <g id="patch_6">
    <path clip-path="url(#p27195870c5)" d="M 259.714286 567 
L 302.228571 567 
L 302.228571 392.02092 
L 259.714286 392.02092 
z
" style="fill:#46b946;"/>
   </g>
   <g id="patch_7">
    <path clip-path="url(#p27195870c5)" d="M 631.714286 567 
L 674.228571 567 
L 674.228571 527.554221 
L 631.714286 527.554221 
z
" style="fill:#46b946;"/>
   </g>
   <g id="patch_8">
    <path clip-path="url(#p27195870c5)" d="M 1003.714286 567 
L 1046.228571 567 
L 1046.228571 512.909332 
L 1003.714286 512.909332 
z
" style="fill:#46b946;"/>
   </g>
   <g id="patch_9">
    <path clip-path="url(#p27195870c5)" d="M 302.228571 567 
L 344.742857 567 
L 344.742857 345.156725 
L 302.228571 345.156725 
z
" style="fill:#a6df20;"/>
   </g>
   <g id="patch_10">
    <path clip-path="url(#p27195870c5)" d="M 674.228571 567 
L 716.742857 567 
L 716.742857 337.531528 
L 674.228571 337.531528 
z
" style="fill:#a6df20;"/>
   </g>
   <g id="patch_11">
    <path clip-path="url(#p27195870c5)" d="M 1046.228571 567 
L 1088.742857 567 
L 1088.742857 377.366222 
L 1046.228571 377.366222 
z
" style="fill:#a6df20;"/>
   </g>
   <g id="patch_12">
    <path clip-path="url(#p27195870c5)" d="M 344.742857 567 
L 387.257143 567 
L 387.257143 121.534843 
L 344.742857 121.534843 
z
" style="fill:#c9c91d;"/>
   </g>
   <g id="patch_13">
    <path clip-path="url(#p27195870c5)" d="M 716.742857 567 
L 759.257143 567 
L 759.257143 101.057143 
L 716.742857 101.057143 
z
" style="fill:#c9c91d;"/>
   </g>
   <g id="patch_14">
    <path clip-path="url(#p27195870c5)" d="M 1088.742857 567 
L 1131.257143 567 
L 1131.257143 137.740658 
L 1088.742857 137.740658 
z
" style="fill:#c9c91d;"/>
   </g>
   <g id="patch_15">
    <path clip-path="url(#p27195870c5)" d="M 387.257143 567 
L 429.771429 567 
L 429.771429 235.513992 
L 387.257143 235.513992 
z
" style="fill:#dfa620;"/>
   </g>
   <g id="patch_16">
    <path clip-path="url(#p27195870c5)" d="M 759.257143 567 
L 801.771429 567 
L 801.771429 217.318145 
L 759.257143 217.318145 
z
" style="fill:#dfa620;"/>
   </g>
   <g id="patch_17">
    <path clip-path="url(#p27195870c5)" d="M 1131.257143 567 
L 1173.771429 567 
L 1173.771429 136.118734 
L 1131.257143 136.118734 
z
" style="fill:#dfa620;"/>
   </g>
   <g id="patch_18">
    <path clip-path="url(#p27195870c5)" d="M 429.771429 567 
L 472.285714 567 
L 472.285714 438.366591 
L 429.771429 438.366591 
z
" style="fill:#df5a20;"/>
   </g>
   <g id="patch_19">
    <path clip-path="url(#p27195870c5)" d="M 801.771429 567 
L 844.285714 567 
L 844.285714 433.789128 
L 801.771429 433.789128 
z
" style="fill:#df5a20;"/>
   </g>
   <g id="patch_20">
    <path clip-path="url(#p27195870c5)" d="M 1173.771429 567 
L 1216.285714 567 
L 1216.285714 338.356642 
L 1173.771429 338.356642 
z
" style="fill:#df5a20;"/>
   </g>
   <g id="patch_21">
    <path clip-path="url(#p27195870c5)" d="M 472.285714 567 
L 514.8 567 
L 514.8 522.235659 
L 472.285714 522.235659 
z
" style="fill:#df2020;"/>
   </g>
   <g id="patch_22">
    <path clip-path="url(#p27195870c5)" d="M 844.285714 567 
L 886.8 567 
L 886.8 523.526894 
L 844.285714 523.526894 
z
" style="fill:#df2020;"/>
   </g>
   <g id="patch_23">
    <path clip-path="url(#p27195870c5)" d="M 1216.285714 567 
L 1258.8 567 
L 1258.8 472.577119 
L 1216.285714 472.577119 
z
" style="fill:#df2020;"/>
   </g>
   <g id="line2d_6">
    <path clip-path="url(#p27195870c5)" style="fill:none;stroke:#424242;stroke-linecap:round;stroke-width:4.05;"/>
   </g>
   <g id="line2d_7">
    <path clip-path="url(#p27195870c5)" style="fill:none;stroke:#424242;stroke-linecap:round;stroke-width:4.05;"/>
   </g>
   <g id="line2d_8">
    <path clip-path="url(#p27195870c5)" style="fill:none;stroke:#424242;stroke-linecap:round;stroke-width:4.05;"/>
   </g>
   <g id="line2d_9">
    <path clip-path="url(#p27195870c5)" style="fill:none;stroke:#424242;stroke-linecap:round;stroke-width:4.05;"/>
   </g>
   <g id="line2d_10">
    <path clip-path="url(#p27195870c5)" style="fill:none;stroke:#424242;stroke-linecap:round;stroke-width:4.05;"/>
   </g>
   <g id="line2d_11">
    <path clip-path="url(#p27195870c5)" style="fill:none;stroke:#424242;stroke-linecap:round;stroke-width:4.05;"/>
   </g>
   <g id="line2d_12">
    <path clip-path="url(#p27195870c5)" style="fill:none;stroke:#424242;stroke-linecap:round;stroke-width:4.05;"/>
   </g>
   <g id="line2d_13">
    <path clip-path="url(#p27195870c5)" style="fill:none;stroke:#424242;stroke-linecap:round;stroke-width:4.05;"/>
   </g>
   <g id="line2d_14">
    <path clip-path="url(#p27195870c5)" style="fill:none;stroke:#424242;stroke-linecap:round;stroke-width:4.05;"/>
   </g>
   <g id="line2d_15">
    <path clip-path="url(#p27195870c5)" style="fill:none;stroke:#424242;stroke-linecap:round;stroke-width:4.05;"/>
   </g>
   <g id="line2d_16">
    <path clip-path="url(#p27195870c5)" style="fill:none;stroke:#424242;stroke-linecap:round;stroke-width:4.05;"/>
   </g>
   <g id="line2d_17">
    <path clip-path="url(#p27195870c5)" style="fill:none;stroke:#424242;stroke-linecap:round;stroke-width:4.05;"/>
   </g>
   <g id="line2d_18">
    <path clip-path="url(#p27195870c5)" style="fill:none;stroke:#424242;stroke-linecap:round;stroke-width:4.05;"/>
   </g>
   <g id="line2d_19">
    <path clip-path="url(#p27195870c5)" style="fill:none;stroke:#424242;stroke-linecap:round;stroke-width:4.05;"/>
   </g>
   <g id="line2d_20">
    <path clip-path="url(#p27195870c5)" style="fill:none;stroke:#424242;stroke-linecap:round;stroke-width:4.05;"/>
   </g>
   <g id="line2d_21">
    <path clip-path="url(#p27195870c5)" style="fill:none;stroke:#424242;stroke-linecap:round;stroke-width:4.05;"/>
   </g>
   <g id="line2d_22">
    <path clip-path="url(#p27195870c5)" style="fill:none;stroke:#424242;stroke-linecap:round;stroke-width:4.05;"/>
   </g>
   <g id="line2d_23">
    <path clip-path="url(#p27195870c5)" style="fill:none;stroke:#424242;stroke-linecap:round;stroke-width:4.05;"/>
   </g>
   <g id="line2d_24">
    <path clip-path="url(#p27195870c5)" style="fill:none;stroke:#424242;stroke-linecap:round;stroke-width:4.05;"/>
   </g>
   <g id="line2d_25">
    <path clip-path="url(#p27195870c5)" style="fill:none;stroke:#424242;stroke-linecap:round;stroke-width:4.05;"/>
   </g>
   <g id="line2d_26">
    <path clip-path="url(#p27195870c5)" style="fill:none;stroke:#424242;stroke-linecap:round;stroke-width:4.05;"/>
   </g>
   <g id="patch_24">
    <path d="M 180 567 
L 180 77.76 
" style="fill:none;stroke:#cccccc;stroke-linecap:square;stroke-linejoin:miter;stroke-width:1.875;"/>
   </g>
   <g id="patch_25">
    <path d="M 1296 567 
L 1296 77.76 
" style="fill:none;stroke:#cccccc;stroke-linecap:square;stroke-linejoin:miter;stroke-width:1.875;"/>
   </g>
   <g id="patch_26">
    <path d="M 180 567 
L 1296 567 
" style="fill:none;stroke:#cccccc;stroke-linecap:square;stroke-linejoin:miter;stroke-width:1.875;"/>
   </g>
   <g id="patch_27">
    <path d="M 180 77.76 
L 1296 77.76 
" style="fill:none;stroke:#cccccc;stroke-linecap:square;stroke-linejoin:miter;stroke-width:1.875;"/>
   </g>
   <g id="legend_1">
    <g id="patch_28">
     <path d="M 191.55 286.663594 
L 314.556562 286.663594 
Q 317.856562 286.663594 317.856562 283.363594 
L 317.856562 89.31 
Q 317.856562 86.01 314.556562 86.01 
L 191.55 86.01 
Q 188.25 86.01 188.25 89.31 
L 188.25 283.363594 
Q 188.25 286.663594 191.55 286.663594 
z
" style="fill:#ffffff;opacity:0.8;stroke:#cccccc;stroke-linejoin:miter;stroke-width:1.5;"/>
    </g>
    <g id="text_12">
     <!-- energy_class -->
     <g style="fill:#262626;" transform="translate(194.85 106.287187)scale(0.18 -0.18)">
      <defs>
       <path d="M 2059 -325 
Q 1816 -950 1584 -1140 
Q 1353 -1331 966 -1331 
L 506 -1331 
L 506 -850 
L 844 -850 
Q 1081 -850 1212 -737 
Q 1344 -625 1503 -206 
L 1606 56 
L 191 3500 
L 800 3500 
L 1894 763 
L 2988 3500 
L 3597 3500 
L 2059 -325 
z
" id="DejaVuSans-79" transform="scale(0.015625)"/>
       <path d="M 3263 -1063 
L 3263 -1509 
L -63 -1509 
L -63 -1063 
L 3263 -1063 
z
" id="DejaVuSans-5f" transform="scale(0.015625)"/>
      </defs>
      <use xlink:href="#DejaVuSans-65"/>
      <use x="61.523438" xlink:href="#DejaVuSans-6e"/>
      <use x="124.902344" xlink:href="#DejaVuSans-65"/>
      <use x="186.425781" xlink:href="#DejaVuSans-72"/>
      <use x="225.789062" xlink:href="#DejaVuSans-67"/>
      <use x="289.265625" xlink:href="#DejaVuSans-79"/>
      <use x="348.445312" xlink:href="#DejaVuSans-5f"/>
      <use x="398.445312" xlink:href="#DejaVuSans-63"/>
      <use x="453.425781" xlink:href="#DejaVuSans-6c"/>
      <use x="481.208984" xlink:href="#DejaVuSans-61"/>
      <use x="542.488281" xlink:href="#DejaVuSans-73"/>
      <use x="594.587891" xlink:href="#DejaVuSans-73"/>
     </g>
    </g>
    <g id="patch_29">
     <path d="M 223.56082 131.318672 
L 256.56082 131.318672 
L 256.56082 119.768672 
L 223.56082 119.768672 
z
" style="fill:#138613;"/>
    </g>
    <g id="text_13">
     <!-- A -->
     <g style="fill:#262626;" transform="translate(269.76082 131.318672)scale(0.165 -0.165)">
      <use xlink:href="#DejaVuSans-41"/>
     </g>
    </g>
    <g id="patch_30">
     <path d="M 223.56082 155.537578 
L 256.56082 155.537578 
L 256.56082 143.987578 
L 223.56082 143.987578 
z
" style="fill:#46b946;"/>
    </g>
    <g id="text_14">
     <!-- B -->
     <g style="fill:#262626;" transform="translate(269.76082 155.537578)scale(0.165 -0.165)">
      <use xlink:href="#DejaVuSans-42"/>
     </g>
    </g>
    <g id="patch_31">
     <path d="M 223.56082 179.756484 
L 256.56082 179.756484 
L 256.56082 168.206484 
L 223.56082 168.206484 
z
" style="fill:#a6df20;"/>
    </g>
    <g id="text_15">
     <!-- C -->
     <g style="fill:#262626;" transform="translate(269.76082 179.756484)scale(0.165 -0.165)">
      <defs>
       <path d="M 4122 4306 
L 4122 3641 
Q 3803 3938 3442 4084 
Q 3081 4231 2675 4231 
Q 1875 4231 1450 3742 
Q 1025 3253 1025 2328 
Q 1025 1406 1450 917 
Q 1875 428 2675 428 
Q 3081 428 3442 575 
Q 3803 722 4122 1019 
L 4122 359 
Q 3791 134 3420 21 
Q 3050 -91 2638 -91 
Q 1578 -91 968 557 
Q 359 1206 359 2328 
Q 359 3453 968 4101 
Q 1578 4750 2638 4750 
Q 3056 4750 3426 4639 
Q 3797 4528 4122 4306 
z
" id="DejaVuSans-43" transform="scale(0.015625)"/>
      </defs>
      <use xlink:href="#DejaVuSans-43"/>
     </g>
    </g>
    <g id="patch_32">
     <path d="M 223.56082 203.975391 
L 256.56082 203.975391 
L 256.56082 192.425391 
L 223.56082 192.425391 
z
" style="fill:#c9c91d;"/>
    </g>
    <g id="text_16">
     <!-- D -->
     <g style="fill:#262626;" transform="translate(269.76082 203.975391)scale(0.165 -0.165)">
      <use xlink:href="#DejaVuSans-44"/>
     </g>
    </g>
    <g id="patch_33">
     <path d="M 223.56082 228.194297 
L 256.56082 228.194297 
L 256.56082 216.644297 
L 223.56082 216.644297 
z
" style="fill:#dfa620;"/>
    </g>
    <g id="text_17">
     <!-- E -->
     <g style="fill:#262626;" transform="translate(269.76082 228.194297)scale(0.165 -0.165)">
      <use xlink:href="#DejaVuSans-45"/>
     </g>
    </g>
    <g id="patch_34">
     <path d="M 223.56082 252.413203 
L 256.56082 252.413203 
L 256.56082 240.863203 
L 223.56082 240.863203 
z
" style="fill:#df5a20;"/>
    </g>
    <g id="text_18">
     <!-- F -->
     <g style="fill:#262626;" transform="translate(269.76082 252.413203)scale(0.165 -0.165)">
      <defs>
       <path d="M 628 4666 
L 3309 4666 
L 3309 4134 
L 1259 4134 
L 1259 2759 
L 3109 2759 
L 3109 2228 
L 1259 2228 
L 1259 0 
L 628 0 
L 628 4666 
z
" id="DejaVuSans-46" transform="scale(0.015625)"/>
      </defs>
      <use xlink:href="#DejaVuSans-46"/>
     </g>
    </g>
    <g id="patch_35">
     <path d="M 223.56082 276.632109 
L 256.56082 276.632109 
L 256.56082 265.082109 
L 223.56082 265.082109 
z
" style="fill:#df2020;"/>
    </g>
    <g id="text_19">
     <!-- G -->
     <g style="fill:#262626;" transform="translate(269.76082 276.632109)scale(0.165 -0.165)">
      <defs>
       <path d="M 3809 666 
L 3809 1919 
L 2778 1919 
L 2778 2438 
L 4434 2438 
L 4434 434 
Q 4069 175 3628 42 
Q 3188 -91 2688 -91 
Q 1594 -91 976 548 
Q 359 1188 359 2328 
Q 359 3472 976 4111 
Q 1594 4750 2688 4750 
Q 3144 4750 3555 4637 
Q 3966 4525 4313 4306 
L 4313 3634 
Q 3963 3931 3569 4081 
Q 3175 4231 2741 4231 
Q 1884 4231 1454 3753 
Q 1025 3275 1025 2328 
Q 1025 1384 1454 906 
Q 1884 428 2741 428 
Q 3075 428 3337 486 
Q 3600 544 3809 666 
z
" id="DejaVuSans-47" transform="scale(0.015625)"/>
      </defs>
      <use xlink:href="#DejaVuSans-47"/>
     </g>
    </g>
   </g>
  </g>
 </g>
 <defs>
  <clipPath id="p27195870c5">
   <rect height="489.24" width="1116" x="180" y="77.76"/>
  </clipPath>
 </defs>
</svg>
