<?xml version="1.0" encoding="UTF-8"?>
<svg id="Calque_2" data-name="Calque 2" xmlns="http://www.w3.org/2000/svg" viewBox="0 0 467.89 141.02">
  <defs>
    <style>
      .cls-1 {
        fill: #005b9f;
        stroke-width: 0px;
      }
    </style>
  </defs>
  <g id="Calque_1-2" data-name="Calque 1">
    <g>
      <path class="cls-1" d="M150.52,49.04c0-3.61-.45-7.11-1.29-10.48L198.86,0l-52.88,29.81c-.56-1.14-1.18-2.25-1.84-3.34L175.06.35l-37.48,18.83-31.44,27.36,32.09-17.12c3.2,5.81,5.02,12.5,5.02,19.62,0,22.34-17.93,40.46-40.05,40.46-2.71,0-5.35-.28-7.91-.79l39.98-30.45-55.22,30c6.84,3.66,14.74,5.74,23.15,5.74,26.14,0,47.32-20.13,47.32-44.96Z"/>
      <path class="cls-1" d="M60.19,67.82c.65,1.34,1.36,2.64,2.14,3.9l-32.91,26.5,39.08-19.36,31.44-28.24-32.01,17.6c-3.05-5.71-4.78-12.24-4.78-19.19,0-22.35,17.93-40.47,40.06-40.47,2.42,0,4.78.21,7.08.63l.31.39-39.79,29.48,55.57-29.26c-6.77-3.54-14.9-5.74-23.17-5.74-26.14,0-47.33,20.13-47.33,44.96,0,3.54.43,6.98,1.24,10.29L7.39,97.69l52.8-29.86Z"/>
      <polygon class="cls-1" points="78.25 86.5 118.22 54 69.91 80.64 52.5 98.58 78.25 86.5"/>
      <polygon class="cls-1" points="136.34 17.23 153.21 0 128.16 11.37 88.92 42.98 136.34 17.23"/>
      <polygon class="cls-1" points="11.34 126.43 4.56 114.3 0 114.3 0 140.68 4.26 140.68 4.26 122.1 11.23 134.24 11.34 134.24 18.35 122.02 18.35 140.68 22.69 140.68 22.69 114.3 18.09 114.3 11.34 126.43"/>
      <rect class="cls-1" x="28.23" y="114.3" width="4.37" height="26.38"/>
      <polygon class="cls-1" points="53.81 131.9 42.21 114.3 38.14 114.3 38.14 140.68 42.43 140.68 42.43 122.55 54.38 140.68 58.07 140.68 58.07 114.3 53.81 114.3 53.81 131.9"/>
      <polygon class="cls-1" points="67.76 129.37 78.65 129.37 78.65 125.42 67.76 125.42 67.76 118.26 80.04 118.26 80.04 114.3 63.42 114.3 63.42 140.68 80.23 140.68 80.23 136.72 67.76 136.72 67.76 129.37"/>
      <path class="cls-1" d="M93.5,125.57c-4.49-1.73-5.47-2.71-5.47-4.56v-.04c0-1.73,1.47-3.05,3.84-3.05,2.11,0,4.11,1.02,5.92,2.49l2.49-3.35c-2.41-2.11-5.24-3.09-8.29-3.09-4.9,0-8.37,3.05-8.37,7.39v.08c0,4.22,2.6,6.07,7.61,7.95,4.18,1.55,5.05,2.64,5.05,4.3v.04c0,1.96-1.62,3.35-4.15,3.35-2.79,0-4.97-1.36-6.93-3.13l-2.64,3.28c2.86,2.64,6.14,3.81,9.53,3.81,4.94,0,8.55-2.98,8.55-7.61v-.07c0-3.84-2.26-5.88-7.16-7.76Z"/>
      <path class="cls-1" d="M132.05,123.08c0-5.47-3.73-8.78-9.5-8.78h-8.44v26.38h4.37v-8.55h3.81c5.47-.08,9.76-3.13,9.76-8.97v-.07ZM127.6,123.23c0,2.94-1.96,4.94-5.31,4.94h-3.81v-9.87h3.81c3.36,0,5.31,1.73,5.31,4.9v.04Z"/>
      <path class="cls-1" d="M141.09,114.15l-9.69,26.53h4.41l2.19-6.22h10.25l2.19,6.22h4.56l-9.69-26.53h-4.22ZM139.36,130.58l3.77-10.59,3.77,10.59h-7.54Z"/>
      <path class="cls-1" d="M177.16,122.74v-.15c0-2.41-.79-4.41-2.19-5.8-1.58-1.58-4.03-2.49-7.05-2.49h-9.53v26.38h4.37v-9.31h4.22c.08,0,.19,0,.26-.04l5.62,9.35h5.05l-6.22-10.21c3.2-1.13,5.46-3.66,5.46-7.73ZM167.47,127.45h-4.71v-9.16h4.79c3.28,0,5.2,1.55,5.2,4.52v.08c0,2.75-1.88,4.56-5.28,4.56Z"/>
      <rect class="cls-1" x="181.75" y="114.3" width="4.37" height="26.38"/>
      <path class="cls-1" d="M200.71,125.57c-4.49-1.73-5.47-2.71-5.47-4.56v-.04c0-1.73,1.47-3.05,3.84-3.05,2.11,0,4.11,1.02,5.92,2.49l2.49-3.35c-2.41-2.11-5.24-3.09-8.29-3.09-4.9,0-8.37,3.05-8.37,7.39v.08c0,4.22,2.6,6.07,7.61,7.95,4.18,1.55,5.05,2.64,5.05,4.3v.04c0,1.96-1.62,3.35-4.15,3.35-2.79,0-4.97-1.36-6.93-3.13l-2.64,3.28c2.86,2.64,6.14,3.81,9.53,3.81,4.94,0,8.55-2.98,8.55-7.61v-.07c0-3.84-2.26-5.88-7.16-7.76Z"/>
      <rect class="cls-1" x="243.82" y="41.5" width="2.22" height="69.36"/>
      <path class="cls-1" d="M302.11,45.94h-18.79v54.74h6.31v-22.89h12.48c10.53,0,17.09-6.72,17.09-16.01s-6.55-15.83-17.09-15.83ZM301.95,71.98h-12.32v-20.23h12.32c7.05,0,10.69,4.31,10.69,10.12s-3.64,10.12-10.69,10.12Z"/>
      <path class="cls-1" d="M347.85,71.07l-5.91-2.9c-4.87-2.41-8.59-4.23-8.59-9.21,0-5.39,4.54-7.96,9.48-7.96s9.4,2.49,12.24,6.88l4.62-3.56c-3.32-5.39-9.48-9.29-16.77-9.29-8.67,0-16.12,5.56-16.12,14.27,0,7.72,5.83,11.61,12.07,14.68l5.99,2.9c5.27,2.57,8.92,4.56,8.92,9.62,0,5.55-4.46,9.12-10.78,9.12-6.88,0-11.66-4.31-14.9-9.37l-4.7,3.57c4.13,7.22,11.18,11.78,19.68,11.78,9.89,0,17.25-6.06,17.25-15.26,0-7.38-4.69-11.45-12.47-15.26Z"/>
      <polygon class="cls-1" points="377.86 45.94 371.55 45.94 371.55 100.67 403.22 100.67 403.22 94.87 377.86 94.87 377.86 45.94"/>
      <path class="cls-1" d="M413.02,45.6v27.31s0,0,0,0,0,0,0,0v27.55h54.87v-54.87h-54.87ZM466.47,46.3l-6.98,6.98c-3.52-3.39-7.95-5.85-12.89-6.98h19.86ZM454.03,85.79c-.12,0-.23-.01-.34-.02l-.75-.75-2.92-8.75,3.98-2.89h13.04c-.31,6.89-6.02,12.41-13.01,12.41ZM466.65,78.21c-1.05,5.15-3.6,9.76-7.16,13.37l-5.1-5.1c5.5-.14,10.2-3.5,12.27-8.26ZM448.99,64.78l4.95-4.95c4.1.04,7.74,1.97,10.11,4.95h-15.06ZM454.97,72.68l9.78-7.11h0s.07-.05.07-.05c1.4,2.05,2.23,4.51,2.25,7.17h-12.11ZM465.39,65.11l-.41.3c-.15-.21-.3-.41-.45-.61,0,0,0,0,0,0,.16.2.31.41.46.62l.41-.3.46-.33h-.93c-2.36-3.22-6.09-5.37-10.32-5.61l4.9-4.9c3.47,3.51,5.97,7.97,7.07,12.95-.33-.74-.72-1.44-1.18-2.1ZM459,53.77l-5.36,5.36c-3.08.04-5.92,1.1-8.2,2.85l-4.95-15.67c7.18.01,13.7,2.86,18.5,7.47ZM440.5,46.3l-5.91,18.47h-1.89l-10.9-10.9c4.82-4.68,11.4-7.58,18.66-7.58.01,0,.03,0,.04,0ZM415.06,64.78l10.96,7.91h-12.3c.06-7.11,2.94-13.56,7.58-18.31l10.4,10.4h-16.64ZM430.89,76.19l-2.96,8.87-6.51,6.52c-4.65-4.7-7.56-11.12-7.68-18.19h13.26l3.9,2.81ZM434.31,46.3c-4.99,1.14-9.46,3.64-13,7.08l-7.08-7.08h20.09ZM413.72,46.79l7.09,7.09c-3.45,3.53-5.94,7.98-7.09,12.93v-20.02ZM413.72,79.02c1.16,5.01,3.69,9.51,7.2,13.05l-7.2,7.2v-20.25ZM414.22,99.77l7.2-7.21c3.79,3.64,8.64,6.21,14.02,7.21h-21.23ZM425.02,94.62l15.24-11.13c-6.82.08-12.67,4.23-15.19,10.13l-.28.84c-1.01-.73-1.97-1.53-2.87-2.4l5.52-5.52-1.2,3.61c3.15-4.45,8.35-7.37,14.22-7.37,1.77,0,3.47.27,5.08.76-3.19-2.51-5.25-6.38-5.25-10.74s1.97-8.04,5.03-10.55l.08.26h0s.09.29.09.29c2.04-1.69,4.61-2.76,7.42-2.95l-4.91,4.91h-1.67l-.61-1.96c-2.88,2.38-4.72,5.98-4.72,9.99,0,6.69,5.11,12.19,11.64,12.89l.76.76c-.97-.05-1.91-.19-2.82-.43,1.57,1.12,2.95,2.5,4.08,4.07l-1.19-3.57v-.02s5.54,5.55,5.54,5.55c-.91.87-1.87,1.68-2.89,2.41l-.34-1c-2.55-5.79-8.31-9.86-15.03-9.98l15.09,11.17c-4.35,3.06-9.65,4.86-15.37,4.86s-11.07-1.82-15.43-4.91ZM445.46,99.77c5.39-1,10.23-3.56,14.03-7.21l7.2,7.21h-21.23ZM467.19,99.28l-7.2-7.2c3.51-3.55,6.05-8.04,7.2-13.05v20.26ZM467.19,66.81c-1.15-5.01-3.69-9.5-7.19-13.04l7.19-7.2v20.24Z"/>
    </g>
  </g>
</svg>